<mxfile host="app.diagrams.net" modified="2023-12-28T19:34:10.834Z" agent="Mozilla/5.0 (Windows NT 10.0; Win64; x64) AppleWebKit/537.36 (KHTML, like Gecko) Chrome/120.0.0.0 Safari/537.36" version="22.1.15" etag="jy1UitlK6HqT7ZoNt75t" type="github">
  <diagram name="Page-1" id="HfN4XnlBj8wRUHL7kl8J">
    <mxGraphModel>
      <root>
        <mxCell id="0" />
        <mxCell id="1" parent="0" />
      </root>
    </mxGraphModel>
  </diagram>
</mxfile>
